<svg xmlns="http://www.w3.org/2000/svg" xmlns:xlink="http://www.w3.org/1999/xlink" width="150" zoomAndPan="magnify" viewBox="0 0 112.5 37.5" height="50" preserveAspectRatio="xMidYMid meet" version="1.0"><defs><g/><clipPath id="bbf277f1e4"><path d="M 1.832031 0 L 27.109375 0 L 27.109375 16 L 1.832031 16 Z M 1.832031 0 " clip-rule="nonzero"/></clipPath><clipPath id="c2ee26d36f"><path d="M 6 18 L 27.109375 18 L 27.109375 37.007812 L 6 37.007812 Z M 6 18 " clip-rule="nonzero"/></clipPath></defs><g clip-path="url(#bbf277f1e4)"><path fill="#898585" d="M 18.675781 7.996094 C 22.695312 7.988281 22.339844 7.828125 22.332031 10.867188 C 23.570312 10.050781 24.8125 9.234375 26.050781 8.417969 C 26.390625 8.476562 26.722656 8.566406 27.046875 8.6875 C 27.050781 10.898438 27.050781 13.113281 27.050781 15.324219 C 26.722656 15.445312 26.386719 15.535156 26.046875 15.59375 C 24.808594 14.78125 23.570312 13.964844 22.332031 13.148438 C 22.335938 15.007812 22.414062 15.132812 22.003906 15.445312 C 21.460938 15.863281 21.800781 15.757812 12.234375 15.757812 C 11.785156 15.765625 11.269531 15.613281 11.003906 15.253906 C 10.824219 15.019531 10.859375 14.917969 10.859375 13.820312 C 9.464844 14.105469 8.070312 14.382812 6.675781 14.671875 C 6.691406 14.808594 6.710938 15.007812 6.652344 15.085938 C 6.558594 14.980469 6.542969 14.835938 6.507812 14.703125 C 6.203125 14.769531 4.03125 15.464844 2.261719 15.578125 C 2.175781 15.582031 1.878906 15.601562 1.835938 15.527344 C 1.894531 15.21875 5.332031 14.433594 6.460938 14.460938 C 6.445312 14.355469 6.390625 13.984375 6.453125 13.894531 C 6.542969 13.878906 6.628906 14.355469 6.644531 14.4375 C 8.050781 14.148438 9.457031 13.863281 10.859375 13.578125 C 10.859375 12.441406 10.882812 10.75 10.847656 10.386719 C 10.101562 10.40625 9.351562 10.21875 8.699219 9.847656 C 5 7.757812 6.636719 2.058594 11.027344 2.398438 C 12.074219 2.480469 12.792969 2.941406 12.792969 2.941406 C 12.894531 2.945312 12.96875 2.714844 13.027344 2.617188 C 14.472656 0.167969 18.015625 0 19.71875 2.15625 C 21.230469 4.070312 20.6875 6.761719 18.675781 7.996094 Z M 18.675781 7.996094 " fill-opacity="1" fill-rule="nonzero"/></g><path fill="#898585" d="M 13.894531 15.980469 C 15.667969 15.976562 17.4375 15.980469 19.210938 15.980469 C 18.621094 18.742188 14.601562 18.917969 13.894531 15.980469 Z M 13.894531 15.980469 " fill-opacity="1" fill-rule="nonzero"/><g clip-path="url(#c2ee26d36f)"><path fill="#898585" d="M 13.667969 18.246094 C 15.589844 18.246094 17.507812 18.246094 19.429688 18.246094 C 19.429688 18.875 19.429688 19.507812 19.433594 20.136719 C 19.113281 20.136719 18.792969 20.136719 18.476562 20.136719 C 18.507812 20.1875 27.003906 36.71875 27.085938 36.882812 C 27.105469 36.917969 27.101562 36.96875 27.066406 37 C 27.015625 37.046875 26.914062 37.171875 26.835938 37.082031 C 22.96875 29.96875 17.679688 20.257812 17.617188 20.136719 C 17.28125 20.136719 16.945312 20.136719 16.609375 20.136719 C 17.035156 35.660156 17.050781 34.757812 16.902344 34.785156 C 16.472656 28.210938 15.9375 20.195312 15.941406 20.136719 C 15.738281 20.136719 15.535156 20.136719 15.332031 20.136719 C 12.269531 25.765625 9.210938 31.394531 6.144531 37.023438 C 6.109375 36.992188 6.074219 36.960938 6.039062 36.929688 C 6.074219 36.867188 13.527344 22.363281 14.675781 20.136719 C 14.339844 20.136719 14.003906 20.136719 13.667969 20.136719 C 13.667969 19.507812 13.667969 18.875 13.667969 18.246094 Z M 13.667969 18.246094 " fill-opacity="1" fill-rule="nonzero"/></g><g fill="#898585" fill-opacity="1"><g transform="translate(31.979914, 22.174546)"><g><path d="M 9.503906 -15.042969 L 9.503906 -16.320312 C 9.503906 -16.503906 9.433594 -16.644531 9.296875 -16.78125 C 9.15625 -16.921875 9.015625 -16.992188 8.832031 -16.992188 L 1.832031 -16.992188 C 1.644531 -16.992188 1.484375 -16.921875 1.34375 -16.78125 C 1.207031 -16.644531 1.160156 -16.503906 1.160156 -16.320312 L 1.160156 -0.671875 C 1.160156 -0.488281 1.207031 -0.324219 1.34375 -0.183594 C 1.484375 -0.046875 1.644531 0 1.832031 0 L 3.105469 0 C 3.292969 0 3.429688 -0.046875 3.570312 -0.183594 C 3.707031 -0.324219 3.777344 -0.488281 3.777344 -0.671875 L 3.777344 -8.34375 C 3.777344 -8.53125 3.824219 -8.667969 3.964844 -8.808594 C 4.101562 -8.949219 4.265625 -9.015625 4.449219 -9.015625 L 7.347656 -9.015625 C 7.535156 -9.015625 7.695312 -9.085938 7.835938 -9.226562 C 7.972656 -9.363281 8.042969 -9.527344 8.042969 -9.710938 L 8.042969 -10.964844 C 8.042969 -11.148438 7.972656 -11.289062 7.835938 -11.425781 C 7.695312 -11.566406 7.535156 -11.636719 7.347656 -11.636719 L 4.449219 -11.636719 C 4.265625 -11.636719 4.101562 -11.683594 3.964844 -11.820312 C 3.824219 -11.960938 3.777344 -12.125 3.777344 -12.308594 L 3.777344 -13.699219 C 3.777344 -13.882812 3.824219 -14.023438 3.964844 -14.164062 C 4.101562 -14.300781 4.265625 -14.371094 4.449219 -14.371094 L 8.832031 -14.371094 C 9.015625 -14.371094 9.15625 -14.417969 9.296875 -14.558594 C 9.433594 -14.695312 9.503906 -14.859375 9.503906 -15.042969 Z M 9.503906 -15.042969 "/></g></g></g><g fill="#898585" fill-opacity="1"><g transform="translate(42.639854, 22.174546)"><g><path d="M 3.105469 -16.992188 L 1.832031 -16.992188 C 1.644531 -16.992188 1.484375 -16.921875 1.34375 -16.78125 C 1.207031 -16.644531 1.160156 -16.503906 1.160156 -16.320312 L 1.160156 -0.671875 C 1.160156 -0.488281 1.207031 -0.324219 1.34375 -0.183594 C 1.484375 -0.046875 1.644531 0 1.832031 0 L 3.105469 0 C 3.292969 0 3.429688 -0.046875 3.570312 -0.183594 C 3.707031 -0.324219 3.777344 -0.488281 3.777344 -0.671875 L 3.777344 -16.320312 C 3.777344 -16.503906 3.707031 -16.644531 3.570312 -16.78125 C 3.429688 -16.921875 3.292969 -16.992188 3.105469 -16.992188 Z M 3.105469 -16.992188 "/></g></g></g><g fill="#898585" fill-opacity="1"><g transform="translate(47.575863, 22.174546)"><g><path d="M 8.230469 -2.621094 L 4.449219 -2.621094 C 4.265625 -2.621094 4.101562 -2.664062 3.964844 -2.804688 C 3.824219 -2.945312 3.777344 -3.105469 3.777344 -3.292969 L 3.777344 -16.320312 C 3.777344 -16.503906 3.707031 -16.644531 3.570312 -16.78125 C 3.429688 -16.921875 3.292969 -16.992188 3.105469 -16.992188 L 1.832031 -16.992188 C 1.644531 -16.992188 1.484375 -16.921875 1.34375 -16.78125 C 1.207031 -16.644531 1.160156 -16.503906 1.160156 -16.320312 L 1.160156 -0.671875 C 1.160156 -0.488281 1.207031 -0.324219 1.34375 -0.183594 C 1.484375 -0.046875 1.644531 0 1.832031 0 L 8.230469 0 C 8.414062 0 8.554688 -0.046875 8.691406 -0.183594 C 8.832031 -0.324219 8.902344 -0.488281 8.902344 -0.671875 L 8.902344 -1.945312 C 8.902344 -2.132812 8.832031 -2.273438 8.691406 -2.410156 C 8.554688 -2.550781 8.414062 -2.621094 8.230469 -2.621094 Z M 8.230469 -2.621094 "/></g></g></g><g fill="#898585" fill-opacity="1"><g transform="translate(57.633282, 22.174546)"><g><path d="M 15.625 -16.992188 L 14 -16.992188 C 13.675781 -16.992188 13.46875 -16.828125 13.351562 -16.527344 L 8.992188 -4.566406 C 8.949219 -4.425781 8.878906 -4.382812 8.738281 -4.382812 C 8.601562 -4.382812 8.507812 -4.425781 8.460938 -4.566406 L 4.101562 -16.527344 C 3.988281 -16.828125 3.777344 -16.992188 3.453125 -16.992188 L 1.855469 -16.992188 C 1.644531 -16.992188 1.484375 -16.921875 1.34375 -16.78125 C 1.207031 -16.644531 1.160156 -16.480469 1.160156 -16.296875 L 1.160156 -0.695312 C 1.160156 -0.488281 1.207031 -0.324219 1.34375 -0.183594 C 1.484375 -0.046875 1.644531 0 1.855469 0 L 3.082031 0 C 3.269531 0 3.429688 -0.046875 3.570312 -0.183594 C 3.707031 -0.324219 3.777344 -0.488281 3.777344 -0.695312 L 3.777344 -8.183594 C 3.777344 -8.320312 3.847656 -8.414062 4.011719 -8.460938 C 4.171875 -8.484375 4.289062 -8.414062 4.335938 -8.273438 L 7.1875 -0.464844 C 7.277344 -0.140625 7.511719 0 7.835938 0 L 9.644531 0 C 9.78125 0 9.898438 -0.0234375 10.035156 -0.117188 C 10.152344 -0.207031 10.246094 -0.324219 10.292969 -0.464844 L 13.144531 -8.273438 C 13.1875 -8.414062 13.28125 -8.484375 13.46875 -8.460938 C 13.605469 -8.414062 13.699219 -8.320312 13.699219 -8.183594 L 13.699219 -0.695312 C 13.699219 -0.488281 13.746094 -0.324219 13.882812 -0.183594 C 14.023438 -0.046875 14.1875 0 14.371094 0 L 15.625 0 C 15.808594 0 15.972656 -0.046875 16.109375 -0.183594 C 16.25 -0.324219 16.320312 -0.488281 16.320312 -0.695312 L 16.320312 -16.296875 C 16.320312 -16.480469 16.25 -16.644531 16.109375 -16.78125 C 15.972656 -16.921875 15.808594 -16.992188 15.625 -16.992188 Z M 15.625 -16.992188 "/></g></g></g><g fill="#898585" fill-opacity="1"><g transform="translate(75.106307, 22.174546)"><g><path d="M 10.59375 0 L 11.914062 0 C 12.125 0 12.308594 -0.0703125 12.449219 -0.253906 C 12.585938 -0.441406 12.609375 -0.625 12.5625 -0.859375 C 12.449219 -1.25 12.355469 -1.554688 12.308594 -1.785156 C 12.261719 -1.992188 12.214844 -2.179688 12.167969 -2.363281 C 12.125 -2.527344 12.054688 -2.710938 12.007812 -2.898438 C 11.960938 -3.082031 11.867188 -3.359375 11.773438 -3.730469 C 11.683594 -4.101562 11.542969 -4.589844 11.382812 -5.191406 C 11.21875 -5.796875 11.011719 -6.582031 10.753906 -7.578125 C 10.476562 -8.554688 10.152344 -9.78125 9.757812 -11.242188 C 9.363281 -12.679688 8.902344 -14.441406 8.367188 -16.480469 C 8.320312 -16.621094 8.253906 -16.757812 8.136719 -16.851562 C 7.996094 -16.945312 7.859375 -16.992188 7.71875 -16.992188 L 6.050781 -16.992188 C 5.886719 -16.992188 5.75 -16.945312 5.632812 -16.851562 C 5.492188 -16.757812 5.425781 -16.621094 5.402344 -16.480469 C 5.261719 -16.039062 5.097656 -15.4375 4.890625 -14.648438 C 4.683594 -13.863281 4.449219 -13.003906 4.195312 -12.03125 C 3.941406 -11.058594 3.664062 -10.035156 3.382812 -8.96875 C 3.105469 -7.90625 2.828125 -6.859375 2.550781 -5.839844 C 2.273438 -4.820312 2.015625 -3.894531 1.785156 -3.011719 C 1.554688 -2.132812 1.34375 -1.414062 1.207031 -0.859375 C 1.136719 -0.625 1.183594 -0.441406 1.320312 -0.253906 C 1.460938 -0.0703125 1.621094 0 1.855469 0 L 3.175781 0 C 3.5 0 3.707031 -0.164062 3.824219 -0.511719 C 3.894531 -0.742188 3.964844 -1.042969 4.054688 -1.390625 C 4.148438 -1.714844 4.242188 -2.109375 4.359375 -2.527344 C 4.449219 -2.851562 4.683594 -3.035156 5.03125 -3.035156 L 8.738281 -3.035156 C 9.0625 -3.035156 9.296875 -2.851562 9.410156 -2.527344 C 9.550781 -1.96875 9.644531 -1.554688 9.734375 -1.230469 C 9.828125 -0.902344 9.898438 -0.671875 9.945312 -0.511719 C 10.035156 -0.164062 10.269531 0 10.59375 0 Z M 5.425781 -6.511719 C 5.5625 -7 5.679688 -7.488281 5.816406 -7.996094 C 5.957031 -8.484375 6.097656 -8.96875 6.234375 -9.480469 C 6.28125 -9.644531 6.351562 -9.757812 6.492188 -9.851562 C 6.605469 -9.945312 6.746094 -9.992188 6.882812 -9.992188 C 7.023438 -9.992188 7.140625 -9.945312 7.277344 -9.851562 C 7.394531 -9.757812 7.488281 -9.644531 7.535156 -9.480469 C 7.671875 -8.925781 7.8125 -8.390625 7.949219 -7.90625 C 8.089844 -7.394531 8.207031 -6.929688 8.34375 -6.511719 C 8.390625 -6.28125 8.367188 -6.097656 8.230469 -5.910156 C 8.089844 -5.726562 7.90625 -5.65625 7.695312 -5.65625 L 6.074219 -5.65625 C 5.839844 -5.65625 5.679688 -5.726562 5.539062 -5.910156 C 5.402344 -6.097656 5.355469 -6.28125 5.425781 -6.511719 Z M 5.425781 -6.511719 "/></g></g></g><g fill="#898585" fill-opacity="1"><g transform="translate(88.871529, 22.174546)"><g><path d="M 5.308594 -16.992188 C 3.941406 -16.992188 2.921875 -16.621094 2.25 -15.902344 C 1.554688 -15.160156 1.230469 -14.140625 1.230469 -12.820312 C 1.230469 -12.332031 1.273438 -11.890625 1.367188 -11.472656 C 1.460938 -11.058594 1.644531 -10.640625 1.878906 -10.222656 C 2.109375 -9.804688 2.433594 -9.386719 2.828125 -8.96875 C 3.199219 -8.554688 3.6875 -8.089844 4.265625 -7.625 C 4.707031 -7.253906 5.078125 -6.90625 5.378906 -6.582031 C 5.679688 -6.257812 5.933594 -5.980469 6.121094 -5.703125 C 6.304688 -5.425781 6.421875 -5.144531 6.511719 -4.867188 C 6.582031 -4.589844 6.628906 -4.289062 6.628906 -4.011719 C 6.628906 -3.40625 6.492188 -2.988281 6.234375 -2.757812 C 5.980469 -2.503906 5.632812 -2.386719 5.191406 -2.386719 C 4.730469 -2.386719 4.382812 -2.503906 4.148438 -2.757812 C 3.894531 -2.988281 3.777344 -3.40625 3.777344 -4.011719 L 3.777344 -4.683594 C 3.777344 -4.820312 3.707031 -4.9375 3.617188 -5.03125 C 3.5 -5.121094 3.382812 -5.191406 3.246094 -5.191406 L 1.667969 -5.191406 C 1.53125 -5.191406 1.390625 -5.121094 1.296875 -5.03125 C 1.207031 -4.9375 1.160156 -4.820312 1.160156 -4.683594 L 1.160156 -4.171875 C 1.160156 -2.828125 1.507812 -1.785156 2.203125 -1.066406 C 2.898438 -0.347656 3.917969 0 5.285156 0 C 6.628906 0 7.648438 -0.347656 8.34375 -1.066406 C 9.039062 -1.785156 9.386719 -2.828125 9.386719 -4.171875 C 9.386719 -4.636719 9.316406 -5.097656 9.226562 -5.515625 C 9.132812 -5.933594 8.96875 -6.328125 8.738281 -6.746094 C 8.507812 -7.164062 8.183594 -7.578125 7.789062 -7.996094 C 7.394531 -8.414062 6.90625 -8.878906 6.351562 -9.363281 C 5.886719 -9.734375 5.515625 -10.058594 5.214844 -10.382812 C 4.914062 -10.710938 4.683594 -11.011719 4.496094 -11.289062 C 4.3125 -11.566406 4.171875 -11.820312 4.101562 -12.101562 C 4.011719 -12.378906 3.988281 -12.65625 3.988281 -12.980469 C 3.988281 -13.558594 4.101562 -13.976562 4.335938 -14.234375 C 4.566406 -14.488281 4.914062 -14.625 5.378906 -14.625 C 5.816406 -14.625 6.164062 -14.488281 6.398438 -14.234375 C 6.628906 -13.976562 6.746094 -13.558594 6.746094 -12.980469 L 6.746094 -12.820312 C 6.746094 -12.65625 6.792969 -12.515625 6.882812 -12.425781 C 6.976562 -12.332031 7.117188 -12.285156 7.277344 -12.285156 L 8.832031 -12.285156 C 8.96875 -12.285156 9.109375 -12.332031 9.203125 -12.425781 C 9.296875 -12.515625 9.363281 -12.65625 9.363281 -12.820312 C 9.363281 -14.140625 9.015625 -15.160156 8.34375 -15.902344 C 7.648438 -16.621094 6.652344 -16.992188 5.308594 -16.992188 Z M 5.308594 -16.992188 "/></g></g></g><g fill="#898585" fill-opacity="1"><g transform="translate(99.415593, 22.174546)"><g><path d="M 3.105469 -16.992188 L 1.832031 -16.992188 C 1.644531 -16.992188 1.484375 -16.921875 1.34375 -16.78125 C 1.207031 -16.644531 1.160156 -16.503906 1.160156 -16.320312 L 1.160156 -0.671875 C 1.160156 -0.488281 1.207031 -0.324219 1.34375 -0.183594 C 1.484375 -0.046875 1.644531 0 1.832031 0 L 3.105469 0 C 3.292969 0 3.429688 -0.046875 3.570312 -0.183594 C 3.707031 -0.324219 3.777344 -0.488281 3.777344 -0.671875 L 3.777344 -16.320312 C 3.777344 -16.503906 3.707031 -16.644531 3.570312 -16.78125 C 3.429688 -16.921875 3.292969 -16.992188 3.105469 -16.992188 Z M 3.105469 -16.992188 "/></g></g></g><g fill="#898585" fill-opacity="1"><g transform="translate(32.407367, 32.633054)"><g><path d="M 2.203125 0 C 2.140625 -0.34375 2.066406 -0.707031 1.984375 -1.09375 C 1.910156 -1.476562 1.832031 -1.863281 1.75 -2.25 C 1.664062 -2.644531 1.570312 -3.035156 1.46875 -3.421875 C 1.375 -3.816406 1.273438 -4.203125 1.171875 -4.578125 L 1.125 -4.578125 C 1.125 -4.453125 1.117188 -4.3125 1.109375 -4.15625 C 1.109375 -4.007812 1.109375 -3.859375 1.109375 -3.703125 C 1.109375 -3.554688 1.109375 -3.410156 1.109375 -3.265625 C 1.117188 -3.117188 1.125 -2.992188 1.125 -2.890625 C 1.125 -2.671875 1.125 -2.441406 1.125 -2.203125 C 1.125 -1.972656 1.125 -1.734375 1.125 -1.484375 C 1.132812 -1.234375 1.144531 -0.984375 1.15625 -0.734375 C 1.164062 -0.484375 1.175781 -0.238281 1.1875 0 L 0.421875 0 C 0.441406 -0.238281 0.453125 -0.484375 0.453125 -0.734375 C 0.460938 -0.984375 0.46875 -1.234375 0.46875 -1.484375 C 0.476562 -1.734375 0.484375 -1.972656 0.484375 -2.203125 C 0.492188 -2.441406 0.5 -2.671875 0.5 -2.890625 C 0.5 -3.109375 0.492188 -3.335938 0.484375 -3.578125 C 0.484375 -3.816406 0.476562 -4.054688 0.46875 -4.296875 C 0.46875 -4.546875 0.460938 -4.796875 0.453125 -5.046875 C 0.453125 -5.296875 0.441406 -5.539062 0.421875 -5.78125 L 1.421875 -5.78125 C 1.585938 -4.976562 1.753906 -4.210938 1.921875 -3.484375 C 2.085938 -2.753906 2.269531 -2.0625 2.46875 -1.40625 L 2.53125 -1.40625 C 2.726562 -2.0625 2.910156 -2.753906 3.078125 -3.484375 C 3.242188 -4.210938 3.410156 -4.976562 3.578125 -5.78125 L 4.578125 -5.78125 C 4.554688 -5.539062 4.539062 -5.296875 4.53125 -5.046875 C 4.519531 -4.796875 4.507812 -4.546875 4.5 -4.296875 C 4.5 -4.054688 4.5 -3.816406 4.5 -3.578125 C 4.5 -3.335938 4.5 -3.109375 4.5 -2.890625 C 4.5 -2.671875 4.5 -2.441406 4.5 -2.203125 C 4.5 -1.972656 4.5 -1.734375 4.5 -1.484375 C 4.507812 -1.234375 4.519531 -0.984375 4.53125 -0.734375 C 4.539062 -0.484375 4.554688 -0.238281 4.578125 0 L 3.8125 0 C 3.820312 -0.238281 3.832031 -0.484375 3.84375 -0.734375 C 3.851562 -0.984375 3.859375 -1.234375 3.859375 -1.484375 C 3.867188 -1.734375 3.875 -1.972656 3.875 -2.203125 C 3.875 -2.441406 3.875 -2.671875 3.875 -2.890625 C 3.875 -2.992188 3.875 -3.117188 3.875 -3.265625 C 3.875 -3.410156 3.875 -3.554688 3.875 -3.703125 C 3.875 -3.859375 3.875 -4.007812 3.875 -4.15625 C 3.875 -4.3125 3.875 -4.453125 3.875 -4.578125 L 3.828125 -4.578125 C 3.722656 -4.203125 3.617188 -3.816406 3.515625 -3.421875 C 3.421875 -3.035156 3.332031 -2.644531 3.25 -2.25 C 3.164062 -1.863281 3.082031 -1.476562 3 -1.09375 C 2.925781 -0.707031 2.859375 -0.34375 2.796875 0 Z M 2.203125 0 "/></g></g></g><g fill="#898585" fill-opacity="1"><g transform="translate(38.555361, 32.633054)"><g><path d="M 3.921875 -2.890625 C 3.921875 -2.367188 3.875 -1.914062 3.78125 -1.53125 C 3.695312 -1.15625 3.570312 -0.84375 3.40625 -0.59375 C 3.238281 -0.351562 3.046875 -0.175781 2.828125 -0.0625 C 2.609375 0.0507812 2.367188 0.109375 2.109375 0.109375 C 1.847656 0.109375 1.609375 0.0507812 1.390625 -0.0625 C 1.171875 -0.175781 0.976562 -0.351562 0.8125 -0.59375 C 0.644531 -0.84375 0.515625 -1.15625 0.421875 -1.53125 C 0.328125 -1.914062 0.28125 -2.367188 0.28125 -2.890625 C 0.28125 -3.398438 0.328125 -3.84375 0.421875 -4.21875 C 0.515625 -4.59375 0.644531 -4.90625 0.8125 -5.15625 C 0.976562 -5.40625 1.171875 -5.585938 1.390625 -5.703125 C 1.609375 -5.816406 1.847656 -5.875 2.109375 -5.875 C 2.367188 -5.875 2.609375 -5.816406 2.828125 -5.703125 C 3.046875 -5.585938 3.238281 -5.40625 3.40625 -5.15625 C 3.570312 -4.90625 3.695312 -4.59375 3.78125 -4.21875 C 3.875 -3.84375 3.921875 -3.398438 3.921875 -2.890625 Z M 3.203125 -2.890625 C 3.203125 -3.316406 3.171875 -3.6875 3.109375 -4 C 3.054688 -4.3125 2.976562 -4.566406 2.875 -4.765625 C 2.78125 -4.972656 2.664062 -5.125 2.53125 -5.21875 C 2.40625 -5.320312 2.265625 -5.375 2.109375 -5.375 C 1.953125 -5.375 1.804688 -5.320312 1.671875 -5.21875 C 1.535156 -5.125 1.414062 -4.972656 1.3125 -4.765625 C 1.21875 -4.566406 1.144531 -4.3125 1.09375 -4 C 1.039062 -3.6875 1.015625 -3.316406 1.015625 -2.890625 C 1.015625 -2.453125 1.039062 -2.078125 1.09375 -1.765625 C 1.144531 -1.453125 1.21875 -1.191406 1.3125 -0.984375 C 1.414062 -0.785156 1.535156 -0.632812 1.671875 -0.53125 C 1.804688 -0.4375 1.953125 -0.390625 2.109375 -0.390625 C 2.265625 -0.390625 2.40625 -0.4375 2.53125 -0.53125 C 2.664062 -0.632812 2.78125 -0.785156 2.875 -0.984375 C 2.976562 -1.191406 3.054688 -1.453125 3.109375 -1.765625 C 3.171875 -2.078125 3.203125 -2.453125 3.203125 -2.890625 Z M 3.203125 -2.890625 "/></g></g></g><g fill="#898585" fill-opacity="1"><g transform="translate(43.916653, 32.633054)"><g><path d="M 1.78125 -0.84375 C 1.976562 -1.664062 2.144531 -2.484375 2.28125 -3.296875 C 2.425781 -4.109375 2.5625 -4.9375 2.6875 -5.78125 L 3.484375 -5.78125 C 3.390625 -5.4375 3.300781 -5.082031 3.21875 -4.71875 C 3.132812 -4.363281 3.050781 -4.003906 2.96875 -3.640625 C 2.894531 -3.285156 2.820312 -2.9375 2.75 -2.59375 C 2.675781 -2.25 2.609375 -1.914062 2.546875 -1.59375 C 2.484375 -1.28125 2.425781 -0.988281 2.375 -0.71875 C 2.332031 -0.445312 2.289062 -0.207031 2.25 0 L 1.25 0 C 1.21875 -0.207031 1.175781 -0.445312 1.125 -0.71875 C 1.070312 -0.988281 1.015625 -1.28125 0.953125 -1.59375 C 0.898438 -1.914062 0.835938 -2.25 0.765625 -2.59375 C 0.691406 -2.9375 0.613281 -3.285156 0.53125 -3.640625 C 0.457031 -4.003906 0.375 -4.363281 0.28125 -4.71875 C 0.195312 -5.082031 0.113281 -5.4375 0.03125 -5.78125 L 0.828125 -5.78125 C 0.953125 -4.9375 1.082031 -4.109375 1.21875 -3.296875 C 1.363281 -2.484375 1.53125 -1.664062 1.71875 -0.84375 Z M 1.78125 -0.84375 "/></g></g></g><g fill="#898585" fill-opacity="1"><g transform="translate(48.57538, 32.633054)"><g><path d="M 1.234375 -5.78125 C 1.222656 -5.539062 1.210938 -5.296875 1.203125 -5.046875 C 1.191406 -4.796875 1.179688 -4.546875 1.171875 -4.296875 C 1.171875 -4.054688 1.164062 -3.816406 1.15625 -3.578125 C 1.15625 -3.335938 1.15625 -3.109375 1.15625 -2.890625 C 1.15625 -2.671875 1.15625 -2.441406 1.15625 -2.203125 C 1.164062 -1.972656 1.171875 -1.734375 1.171875 -1.484375 C 1.179688 -1.234375 1.1875 -0.984375 1.1875 -0.734375 C 1.195312 -0.484375 1.210938 -0.238281 1.234375 0 L 0.453125 0 C 0.460938 -0.238281 0.472656 -0.484375 0.484375 -0.734375 C 0.492188 -0.984375 0.5 -1.234375 0.5 -1.484375 C 0.507812 -1.734375 0.515625 -1.972656 0.515625 -2.203125 C 0.523438 -2.441406 0.53125 -2.671875 0.53125 -2.890625 C 0.53125 -3.109375 0.523438 -3.335938 0.515625 -3.578125 C 0.515625 -3.816406 0.507812 -4.054688 0.5 -4.296875 C 0.5 -4.546875 0.492188 -4.796875 0.484375 -5.046875 C 0.472656 -5.296875 0.460938 -5.539062 0.453125 -5.78125 Z M 1.234375 -5.78125 "/></g></g></g><g fill="#898585" fill-opacity="1"><g transform="translate(51.408285, 32.633054)"><g><path d="M 2.859375 -5.78125 L 2.859375 -5.28125 L 1.1875 -5.28125 C 1.164062 -4.957031 1.148438 -4.632812 1.140625 -4.3125 C 1.140625 -4 1.140625 -3.691406 1.140625 -3.390625 L 2.734375 -3.390625 L 2.734375 -2.890625 L 1.140625 -2.890625 C 1.140625 -2.523438 1.140625 -2.132812 1.140625 -1.71875 C 1.148438 -1.3125 1.164062 -0.898438 1.1875 -0.484375 L 2.890625 -0.484375 L 2.890625 0 L 0.421875 0 C 0.441406 -0.238281 0.453125 -0.484375 0.453125 -0.734375 C 0.460938 -0.984375 0.46875 -1.234375 0.46875 -1.484375 C 0.476562 -1.734375 0.484375 -1.972656 0.484375 -2.203125 C 0.492188 -2.441406 0.5 -2.671875 0.5 -2.890625 C 0.5 -3.109375 0.492188 -3.335938 0.484375 -3.578125 C 0.484375 -3.816406 0.476562 -4.054688 0.46875 -4.296875 C 0.46875 -4.546875 0.460938 -4.796875 0.453125 -5.046875 C 0.453125 -5.296875 0.441406 -5.539062 0.421875 -5.78125 Z M 2.859375 -5.78125 "/></g></g></g><g fill="#898585" fill-opacity="1"><g transform="translate(55.768319, 32.633054)"><g/></g></g><g fill="#898585" fill-opacity="1"><g transform="translate(58.597017, 32.633054)"><g><path d="M 1.734375 -5.78125 C 2.035156 -5.78125 2.3125 -5.734375 2.5625 -5.640625 C 2.8125 -5.546875 3.023438 -5.382812 3.203125 -5.15625 C 3.378906 -4.9375 3.515625 -4.640625 3.609375 -4.265625 C 3.710938 -3.898438 3.765625 -3.441406 3.765625 -2.890625 C 3.765625 -2.335938 3.710938 -1.875 3.609375 -1.5 C 3.515625 -1.132812 3.378906 -0.835938 3.203125 -0.609375 C 3.023438 -0.390625 2.8125 -0.234375 2.5625 -0.140625 C 2.3125 -0.046875 2.035156 0 1.734375 0 L 0.421875 0 C 0.441406 -0.238281 0.453125 -0.484375 0.453125 -0.734375 C 0.460938 -0.984375 0.46875 -1.234375 0.46875 -1.484375 C 0.476562 -1.734375 0.484375 -1.972656 0.484375 -2.203125 C 0.492188 -2.441406 0.5 -2.671875 0.5 -2.890625 C 0.5 -3.109375 0.492188 -3.335938 0.484375 -3.578125 C 0.484375 -3.816406 0.476562 -4.054688 0.46875 -4.296875 C 0.46875 -4.546875 0.460938 -4.796875 0.453125 -5.046875 C 0.453125 -5.296875 0.441406 -5.539062 0.421875 -5.78125 Z M 1.1875 -5.296875 C 1.164062 -4.878906 1.148438 -4.460938 1.140625 -4.046875 C 1.140625 -3.640625 1.140625 -3.253906 1.140625 -2.890625 C 1.140625 -2.523438 1.140625 -2.132812 1.140625 -1.71875 C 1.148438 -1.300781 1.164062 -0.890625 1.1875 -0.484375 L 1.75 -0.484375 C 1.863281 -0.484375 1.972656 -0.492188 2.078125 -0.515625 C 2.191406 -0.546875 2.296875 -0.59375 2.390625 -0.65625 C 2.492188 -0.726562 2.582031 -0.820312 2.65625 -0.9375 C 2.738281 -1.050781 2.804688 -1.195312 2.859375 -1.375 C 2.910156 -1.550781 2.953125 -1.765625 2.984375 -2.015625 C 3.015625 -2.265625 3.03125 -2.554688 3.03125 -2.890625 C 3.03125 -3.222656 3.015625 -3.515625 2.984375 -3.765625 C 2.953125 -4.015625 2.910156 -4.226562 2.859375 -4.40625 C 2.804688 -4.582031 2.738281 -4.726562 2.65625 -4.84375 C 2.582031 -4.957031 2.492188 -5.046875 2.390625 -5.109375 C 2.296875 -5.179688 2.191406 -5.226562 2.078125 -5.25 C 1.972656 -5.28125 1.863281 -5.296875 1.75 -5.296875 Z M 1.1875 -5.296875 "/></g></g></g><g fill="#898585" fill-opacity="1"><g transform="translate(63.798445, 32.633054)"><g><path d="M 2.859375 -5.78125 L 2.859375 -5.28125 L 1.1875 -5.28125 C 1.164062 -4.957031 1.148438 -4.632812 1.140625 -4.3125 C 1.140625 -4 1.140625 -3.691406 1.140625 -3.390625 L 2.734375 -3.390625 L 2.734375 -2.890625 L 1.140625 -2.890625 C 1.140625 -2.523438 1.140625 -2.132812 1.140625 -1.71875 C 1.148438 -1.3125 1.164062 -0.898438 1.1875 -0.484375 L 2.890625 -0.484375 L 2.890625 0 L 0.421875 0 C 0.441406 -0.238281 0.453125 -0.484375 0.453125 -0.734375 C 0.460938 -0.984375 0.46875 -1.234375 0.46875 -1.484375 C 0.476562 -1.734375 0.484375 -1.972656 0.484375 -2.203125 C 0.492188 -2.441406 0.5 -2.671875 0.5 -2.890625 C 0.5 -3.109375 0.492188 -3.335938 0.484375 -3.578125 C 0.484375 -3.816406 0.476562 -4.054688 0.46875 -4.296875 C 0.46875 -4.546875 0.460938 -4.796875 0.453125 -5.046875 C 0.453125 -5.296875 0.441406 -5.539062 0.421875 -5.78125 Z M 2.859375 -5.78125 "/></g></g></g><g fill="#898585" fill-opacity="1"><g transform="translate(68.158479, 32.633054)"><g><path d="M 0.0625 -5.78125 L 2.9375 -5.78125 L 2.9375 -5.28125 L 1.875 -5.28125 C 1.851562 -4.875 1.835938 -4.460938 1.828125 -4.046875 C 1.816406 -3.640625 1.8125 -3.253906 1.8125 -2.890625 C 1.8125 -2.671875 1.8125 -2.441406 1.8125 -2.203125 C 1.820312 -1.972656 1.828125 -1.734375 1.828125 -1.484375 C 1.835938 -1.234375 1.847656 -0.984375 1.859375 -0.734375 C 1.867188 -0.484375 1.878906 -0.238281 1.890625 0 L 1.109375 0 C 1.117188 -0.238281 1.128906 -0.484375 1.140625 -0.734375 C 1.148438 -0.984375 1.15625 -1.234375 1.15625 -1.484375 C 1.164062 -1.734375 1.171875 -1.972656 1.171875 -2.203125 C 1.179688 -2.441406 1.1875 -2.671875 1.1875 -2.890625 C 1.1875 -3.253906 1.179688 -3.640625 1.171875 -4.046875 C 1.171875 -4.460938 1.160156 -4.875 1.140625 -5.28125 L 0.0625 -5.28125 Z M 0.0625 -5.78125 "/></g></g></g><g fill="#898585" fill-opacity="1"><g transform="translate(72.312372, 32.633054)"><g><path d="M 2.6875 0 C 2.644531 -0.269531 2.601562 -0.535156 2.5625 -0.796875 C 2.519531 -1.054688 2.476562 -1.320312 2.4375 -1.59375 L 1.078125 -1.59375 C 1.023438 -1.320312 0.976562 -1.054688 0.9375 -0.796875 C 0.894531 -0.535156 0.859375 -0.269531 0.828125 0 L 0.03125 0 C 0.113281 -0.34375 0.195312 -0.691406 0.28125 -1.046875 C 0.375 -1.410156 0.457031 -1.769531 0.53125 -2.125 C 0.613281 -2.476562 0.691406 -2.828125 0.765625 -3.171875 C 0.835938 -3.523438 0.898438 -3.859375 0.953125 -4.171875 C 1.015625 -4.484375 1.070312 -4.773438 1.125 -5.046875 C 1.175781 -5.316406 1.21875 -5.5625 1.25 -5.78125 L 2.25 -5.78125 C 2.289062 -5.5625 2.332031 -5.316406 2.375 -5.046875 C 2.425781 -4.773438 2.484375 -4.484375 2.546875 -4.171875 C 2.609375 -3.859375 2.675781 -3.523438 2.75 -3.171875 C 2.820312 -2.828125 2.894531 -2.476562 2.96875 -2.125 C 3.050781 -1.769531 3.132812 -1.410156 3.21875 -1.046875 C 3.300781 -0.691406 3.390625 -0.34375 3.484375 0 Z M 1.71875 -4.921875 C 1.601562 -4.453125 1.5 -3.976562 1.40625 -3.5 C 1.320312 -3.03125 1.238281 -2.554688 1.15625 -2.078125 L 2.359375 -2.078125 C 2.273438 -2.554688 2.1875 -3.03125 2.09375 -3.5 C 2 -3.976562 1.894531 -4.453125 1.78125 -4.921875 Z M 1.71875 -4.921875 "/></g></g></g><g fill="#898585" fill-opacity="1"><g transform="translate(76.9711, 32.633054)"><g><path d="M 1.234375 -5.78125 C 1.222656 -5.539062 1.210938 -5.296875 1.203125 -5.046875 C 1.191406 -4.796875 1.179688 -4.546875 1.171875 -4.296875 C 1.171875 -4.054688 1.164062 -3.816406 1.15625 -3.578125 C 1.15625 -3.335938 1.15625 -3.109375 1.15625 -2.890625 C 1.15625 -2.671875 1.15625 -2.441406 1.15625 -2.203125 C 1.164062 -1.972656 1.171875 -1.734375 1.171875 -1.484375 C 1.179688 -1.234375 1.1875 -0.984375 1.1875 -0.734375 C 1.195312 -0.484375 1.210938 -0.238281 1.234375 0 L 0.453125 0 C 0.460938 -0.238281 0.472656 -0.484375 0.484375 -0.734375 C 0.492188 -0.984375 0.5 -1.234375 0.5 -1.484375 C 0.507812 -1.734375 0.515625 -1.972656 0.515625 -2.203125 C 0.523438 -2.441406 0.53125 -2.671875 0.53125 -2.890625 C 0.53125 -3.109375 0.523438 -3.335938 0.515625 -3.578125 C 0.515625 -3.816406 0.507812 -4.054688 0.5 -4.296875 C 0.5 -4.546875 0.492188 -4.796875 0.484375 -5.046875 C 0.472656 -5.296875 0.460938 -5.539062 0.453125 -5.78125 Z M 1.234375 -5.78125 "/></g></g></g><g fill="#898585" fill-opacity="1"><g transform="translate(79.804003, 32.633054)"><g><path d="M 1.21875 -5.78125 C 1.195312 -5.539062 1.179688 -5.296875 1.171875 -5.046875 C 1.160156 -4.796875 1.148438 -4.546875 1.140625 -4.296875 C 1.140625 -4.054688 1.140625 -3.816406 1.140625 -3.578125 C 1.140625 -3.335938 1.140625 -3.109375 1.140625 -2.890625 C 1.140625 -2.523438 1.140625 -2.132812 1.140625 -1.71875 C 1.148438 -1.3125 1.164062 -0.898438 1.1875 -0.484375 L 2.890625 -0.484375 L 2.890625 0 L 0.421875 0 C 0.441406 -0.238281 0.453125 -0.484375 0.453125 -0.734375 C 0.460938 -0.984375 0.46875 -1.234375 0.46875 -1.484375 C 0.476562 -1.734375 0.484375 -1.972656 0.484375 -2.203125 C 0.492188 -2.441406 0.5 -2.671875 0.5 -2.890625 C 0.5 -3.109375 0.492188 -3.335938 0.484375 -3.578125 C 0.484375 -3.816406 0.476562 -4.054688 0.46875 -4.296875 C 0.46875 -4.546875 0.460938 -4.796875 0.453125 -5.046875 C 0.453125 -5.296875 0.441406 -5.539062 0.421875 -5.78125 Z M 1.21875 -5.78125 "/></g></g></g><g fill="#898585" fill-opacity="1"><g transform="translate(83.877963, 32.633054)"><g><path d="M 1.390625 -0.359375 C 1.503906 -0.359375 1.613281 -0.375 1.71875 -0.40625 C 1.832031 -0.445312 1.929688 -0.503906 2.015625 -0.578125 C 2.097656 -0.660156 2.164062 -0.757812 2.21875 -0.875 C 2.269531 -1 2.296875 -1.148438 2.296875 -1.328125 C 2.296875 -1.484375 2.265625 -1.625 2.203125 -1.75 C 2.140625 -1.882812 2.054688 -2.007812 1.953125 -2.125 C 1.859375 -2.238281 1.75 -2.347656 1.625 -2.453125 C 1.5 -2.566406 1.367188 -2.679688 1.234375 -2.796875 C 1.109375 -2.910156 0.984375 -3.023438 0.859375 -3.140625 C 0.734375 -3.265625 0.617188 -3.390625 0.515625 -3.515625 C 0.421875 -3.648438 0.34375 -3.796875 0.28125 -3.953125 C 0.21875 -4.109375 0.1875 -4.273438 0.1875 -4.453125 C 0.1875 -4.722656 0.234375 -4.945312 0.328125 -5.125 C 0.429688 -5.3125 0.554688 -5.457031 0.703125 -5.5625 C 0.859375 -5.675781 1.023438 -5.753906 1.203125 -5.796875 C 1.390625 -5.847656 1.570312 -5.875 1.75 -5.875 C 1.925781 -5.875 2.097656 -5.859375 2.265625 -5.828125 C 2.441406 -5.804688 2.609375 -5.78125 2.765625 -5.75 L 2.765625 -4.90625 C 2.671875 -4.976562 2.582031 -5.046875 2.5 -5.109375 C 2.425781 -5.171875 2.347656 -5.222656 2.265625 -5.265625 C 2.191406 -5.304688 2.113281 -5.335938 2.03125 -5.359375 C 1.945312 -5.390625 1.851562 -5.40625 1.75 -5.40625 C 1.632812 -5.40625 1.523438 -5.390625 1.421875 -5.359375 C 1.316406 -5.328125 1.222656 -5.273438 1.140625 -5.203125 C 1.066406 -5.140625 1.003906 -5.054688 0.953125 -4.953125 C 0.910156 -4.847656 0.890625 -4.722656 0.890625 -4.578125 C 0.890625 -4.378906 0.941406 -4.195312 1.046875 -4.03125 C 1.148438 -3.875 1.28125 -3.71875 1.4375 -3.5625 C 1.59375 -3.414062 1.757812 -3.269531 1.9375 -3.125 C 2.125 -2.976562 2.296875 -2.816406 2.453125 -2.640625 C 2.609375 -2.472656 2.738281 -2.285156 2.84375 -2.078125 C 2.945312 -1.878906 3 -1.648438 3 -1.390625 C 3 -1.191406 2.976562 -1.015625 2.9375 -0.859375 C 2.894531 -0.710938 2.832031 -0.582031 2.75 -0.46875 C 2.675781 -0.363281 2.585938 -0.269531 2.484375 -0.1875 C 2.390625 -0.113281 2.285156 -0.0546875 2.171875 -0.015625 C 2.054688 0.0234375 1.9375 0.0546875 1.8125 0.078125 C 1.6875 0.0976562 1.566406 0.109375 1.453125 0.109375 C 1.316406 0.109375 1.191406 0.101562 1.078125 0.09375 C 0.960938 0.0820312 0.851562 0.0664062 0.75 0.046875 C 0.65625 0.0351562 0.5625 0.0195312 0.46875 0 C 0.382812 -0.03125 0.304688 -0.0546875 0.234375 -0.078125 L 0.234375 -0.953125 C 0.316406 -0.867188 0.398438 -0.789062 0.484375 -0.71875 C 0.578125 -0.644531 0.671875 -0.582031 0.765625 -0.53125 C 0.859375 -0.476562 0.953125 -0.4375 1.046875 -0.40625 C 1.148438 -0.375 1.265625 -0.359375 1.390625 -0.359375 Z M 1.390625 -0.359375 "/></g></g></g><g fill="#898585" fill-opacity="1"><g transform="translate(88.242204, 32.633054)"><g/></g></g><g fill="#898585" fill-opacity="1"><g transform="translate(91.070902, 32.633054)"><g><path d="M 2.6875 0 C 2.644531 -0.269531 2.601562 -0.535156 2.5625 -0.796875 C 2.519531 -1.054688 2.476562 -1.320312 2.4375 -1.59375 L 1.078125 -1.59375 C 1.023438 -1.320312 0.976562 -1.054688 0.9375 -0.796875 C 0.894531 -0.535156 0.859375 -0.269531 0.828125 0 L 0.03125 0 C 0.113281 -0.34375 0.195312 -0.691406 0.28125 -1.046875 C 0.375 -1.410156 0.457031 -1.769531 0.53125 -2.125 C 0.613281 -2.476562 0.691406 -2.828125 0.765625 -3.171875 C 0.835938 -3.523438 0.898438 -3.859375 0.953125 -4.171875 C 1.015625 -4.484375 1.070312 -4.773438 1.125 -5.046875 C 1.175781 -5.316406 1.21875 -5.5625 1.25 -5.78125 L 2.25 -5.78125 C 2.289062 -5.5625 2.332031 -5.316406 2.375 -5.046875 C 2.425781 -4.773438 2.484375 -4.484375 2.546875 -4.171875 C 2.609375 -3.859375 2.675781 -3.523438 2.75 -3.171875 C 2.820312 -2.828125 2.894531 -2.476562 2.96875 -2.125 C 3.050781 -1.769531 3.132812 -1.410156 3.21875 -1.046875 C 3.300781 -0.691406 3.390625 -0.34375 3.484375 0 Z M 1.71875 -4.921875 C 1.601562 -4.453125 1.5 -3.976562 1.40625 -3.5 C 1.320312 -3.03125 1.238281 -2.554688 1.15625 -2.078125 L 2.359375 -2.078125 C 2.273438 -2.554688 2.1875 -3.03125 2.09375 -3.5 C 2 -3.976562 1.894531 -4.453125 1.78125 -4.921875 Z M 1.71875 -4.921875 "/></g></g></g><g fill="#898585" fill-opacity="1"><g transform="translate(95.729631, 32.633054)"><g><path d="M 1.828125 -5.78125 C 2.054688 -5.78125 2.265625 -5.738281 2.453125 -5.65625 C 2.640625 -5.570312 2.796875 -5.453125 2.921875 -5.296875 C 3.046875 -5.148438 3.140625 -4.960938 3.203125 -4.734375 C 3.273438 -4.515625 3.3125 -4.265625 3.3125 -3.984375 C 3.3125 -3.867188 3.300781 -3.742188 3.28125 -3.609375 C 3.257812 -3.472656 3.222656 -3.335938 3.171875 -3.203125 C 3.117188 -3.066406 3.050781 -2.9375 2.96875 -2.8125 C 2.894531 -2.695312 2.800781 -2.59375 2.6875 -2.5 C 2.570312 -2.40625 2.4375 -2.332031 2.28125 -2.28125 C 2.132812 -2.226562 1.96875 -2.203125 1.78125 -2.203125 L 1.140625 -2.203125 C 1.140625 -1.835938 1.144531 -1.46875 1.15625 -1.09375 C 1.164062 -0.71875 1.179688 -0.351562 1.203125 0 L 0.421875 0 C 0.441406 -0.238281 0.453125 -0.484375 0.453125 -0.734375 C 0.460938 -0.984375 0.46875 -1.234375 0.46875 -1.484375 C 0.476562 -1.734375 0.484375 -1.972656 0.484375 -2.203125 C 0.492188 -2.441406 0.5 -2.671875 0.5 -2.890625 C 0.5 -3.109375 0.492188 -3.335938 0.484375 -3.578125 C 0.484375 -3.816406 0.476562 -4.054688 0.46875 -4.296875 C 0.46875 -4.546875 0.460938 -4.796875 0.453125 -5.046875 C 0.453125 -5.296875 0.441406 -5.539062 0.421875 -5.78125 Z M 1.1875 -5.3125 C 1.164062 -4.894531 1.148438 -4.476562 1.140625 -4.0625 C 1.140625 -3.644531 1.140625 -3.253906 1.140625 -2.890625 L 1.140625 -2.671875 L 1.78125 -2.671875 C 2.03125 -2.671875 2.222656 -2.785156 2.359375 -3.015625 C 2.503906 -3.242188 2.578125 -3.566406 2.578125 -3.984375 C 2.578125 -4.410156 2.507812 -4.738281 2.375 -4.96875 C 2.25 -5.195312 2.050781 -5.3125 1.78125 -5.3125 Z M 1.1875 -5.3125 "/></g></g></g><g fill="#898585" fill-opacity="1"><g transform="translate(100.40098, 32.633054)"><g><path d="M 1.828125 -5.78125 C 2.054688 -5.78125 2.265625 -5.738281 2.453125 -5.65625 C 2.640625 -5.570312 2.796875 -5.453125 2.921875 -5.296875 C 3.046875 -5.148438 3.140625 -4.960938 3.203125 -4.734375 C 3.273438 -4.515625 3.3125 -4.265625 3.3125 -3.984375 C 3.3125 -3.867188 3.300781 -3.742188 3.28125 -3.609375 C 3.257812 -3.472656 3.222656 -3.335938 3.171875 -3.203125 C 3.117188 -3.066406 3.050781 -2.9375 2.96875 -2.8125 C 2.894531 -2.695312 2.800781 -2.59375 2.6875 -2.5 C 2.570312 -2.40625 2.4375 -2.332031 2.28125 -2.28125 C 2.132812 -2.226562 1.96875 -2.203125 1.78125 -2.203125 L 1.140625 -2.203125 C 1.140625 -1.835938 1.144531 -1.46875 1.15625 -1.09375 C 1.164062 -0.71875 1.179688 -0.351562 1.203125 0 L 0.421875 0 C 0.441406 -0.238281 0.453125 -0.484375 0.453125 -0.734375 C 0.460938 -0.984375 0.46875 -1.234375 0.46875 -1.484375 C 0.476562 -1.734375 0.484375 -1.972656 0.484375 -2.203125 C 0.492188 -2.441406 0.5 -2.671875 0.5 -2.890625 C 0.5 -3.109375 0.492188 -3.335938 0.484375 -3.578125 C 0.484375 -3.816406 0.476562 -4.054688 0.46875 -4.296875 C 0.46875 -4.546875 0.460938 -4.796875 0.453125 -5.046875 C 0.453125 -5.296875 0.441406 -5.539062 0.421875 -5.78125 Z M 1.1875 -5.3125 C 1.164062 -4.894531 1.148438 -4.476562 1.140625 -4.0625 C 1.140625 -3.644531 1.140625 -3.253906 1.140625 -2.890625 L 1.140625 -2.671875 L 1.78125 -2.671875 C 2.03125 -2.671875 2.222656 -2.785156 2.359375 -3.015625 C 2.503906 -3.242188 2.578125 -3.566406 2.578125 -3.984375 C 2.578125 -4.410156 2.507812 -4.738281 2.375 -4.96875 C 2.25 -5.195312 2.050781 -5.3125 1.78125 -5.3125 Z M 1.1875 -5.3125 "/></g></g></g></svg>